<?xml version="1.0" standalone="no"?>
<!DOCTYPE svg PUBLIC "-//W3C//DTD SVG 20010904//EN"
 "http://www.w3.org/TR/2001/REC-SVG-20010904/DTD/svg10.dtd">
<svg version="1.0" xmlns="http://www.w3.org/2000/svg"
 width="176.000000pt" height="176.000000pt" viewBox="0 0 176.000000 176.000000"
 preserveAspectRatio="xMidYMid meet">
<metadata>
Created by potrace 1.11, written by Peter Selinger 2001-2013
</metadata>
<g transform="translate(0.000000,176.000000) scale(0.100000,-0.100000)"
fill="#000000" stroke="none">
<path d="M840 1451 c0 -22 5 -41 13 -44 6 -2 -13 -2 -43 1 -45 3 -65 -1 -113
-24 -32 -15 -68 -40 -80 -56 -11 -15 -26 -28 -33 -28 -7 0 -23 -13 -37 -30
-14 -16 -60 -61 -101 -100 -89 -82 -185 -191 -239 -271 -41 -60 -60 -69 -149
-69 -32 0 -39 -4 -44 -25 -7 -30 3 -77 19 -87 7 -4 29 -8 50 -8 l37 0 0 -74
c0 -63 5 -85 35 -151 47 -103 115 -207 154 -234 51 -36 231 -80 333 -81 127 0
200 25 407 144 l114 65 -160 160 c-115 115 -162 169 -166 190 -4 19 -17 35
-34 45 -44 23 -98 85 -139 160 -36 66 -38 74 -36 153 2 90 15 131 57 178 14
17 23 24 19 16 -6 -11 -3 -13 12 -7 10 5 44 12 74 17 l55 8 -64 -3 c-54 -2
-61 -1 -45 11 9 7 33 16 52 19 47 9 153 -2 162 -17 6 -8 23 -10 58 -5 36 5 66
1 111 -13 39 -12 61 -15 61 -8 0 6 7 2 15 -9 14 -18 14 -18 15 -1 0 12 -11 23
-30 30 -38 14 -39 37 -2 37 38 -1 62 -22 62 -56 0 -26 7 -32 74 -62 41 -19 77
-40 80 -48 9 -24 44 -15 66 16 17 24 19 34 10 45 -33 40 -223 117 -356 144
-61 13 -62 14 -77 60 l-14 46 -92 3 -91 3 0 -40z m430 -145 c0 -3 -4 -8 -10
-11 -5 -3 -10 -1 -10 4 0 6 5 11 10 11 6 0 10 -2 10 -4z"/>
<path d="M900 1249 c132 -6 202 -16 256 -35 13 -5 16 -4 9 4 -18 20 -184 42
-299 40 l-111 -1 145 -8z"/>
<path d="M1150 1250 c34 -11 60 -11 35 0 -11 5 -29 8 -40 8 -16 0 -15 -2 5 -8z"/>
<path d="M1280 1194 c0 -8 32 -33 43 -34 5 0 5 4 2 10 -8 13 -45 33 -45 24z"/>
<path d="M1220 1175 c0 -8 61 -37 67 -31 3 2 -9 12 -26 20 -31 17 -41 19 -41
11z"/>
<path d="M1478 1152 c-12 -20 -13 -31 -5 -44 18 -27 -14 -273 -59 -458 -6 -28
-22 -67 -35 -90 -25 -44 -46 -90 -41 -90 3 0 47 20 97 44 89 44 205 135 205
161 0 7 7 18 15 25 8 7 15 23 15 36 0 19 6 23 38 26 31 3 37 7 40 28 4 47 -8
53 -91 46 l-75 -8 -31 -62 c-16 -34 -42 -73 -57 -86 l-27 -25 17 32 c9 18 16
38 16 46 0 8 7 28 15 43 11 21 15 61 15 144 -1 100 -18 241 -31 255 -3 2 -12
-8 -21 -23z m12 -242 c0 -5 -5 -10 -11 -10 -5 0 -7 5 -4 10 3 6 8 10 11 10 2
0 4 -4 4 -10z m6 -125 c-11 -8 -25 -15 -30 -15 -6 0 -2 7 8 15 11 8 25 15 30
15 6 0 2 -7 -8 -15z"/>
<path d="M805 1100 c-90 -6 -183 -25 -172 -36 2 -3 30 2 61 10 32 9 112 16
178 18 66 1 111 5 101 9 -20 9 -29 8 -168 -1z"/>
<path d="M1350 1085 c7 -8 17 -15 22 -15 6 0 5 7 -2 15 -7 8 -17 15 -22 15 -6
0 -5 -7 2 -15z"/>
<path d="M1442 1070 c0 -14 2 -19 5 -12 2 6 2 18 0 25 -3 6 -5 1 -5 -13z"/>
<path d="M1220 1035 c14 -8 32 -14 40 -14 9 0 4 6 -10 14 -14 8 -32 14 -40 14
-9 0 -4 -6 10 -14z"/>
<path d="M1280 1003 c0 -13 29 -38 35 -31 3 3 -4 13 -15 23 -11 10 -20 13 -20
8z"/>
<path d="M907 687 c88 -100 226 -222 246 -219 16 3 19 0 14 -17 -3 -12 -1 -23
3 -26 10 -6 54 86 63 133 6 27 4 32 -13 32 -39 0 -109 24 -112 38 -2 8 -26 21
-56 28 -29 8 -60 21 -69 29 -17 18 -78 45 -100 45 -9 0 0 -16 24 -43z"/>
<path d="M1363 663 c-7 -3 -13 -11 -13 -19 0 -8 -16 -22 -35 -29 -28 -12 -36
-23 -46 -57 -6 -24 -18 -60 -27 -81 -8 -20 -13 -40 -10 -43 13 -12 76 67 112
139 38 75 43 98 19 90z m-63 -138 c0 -8 -7 -15 -15 -15 -8 0 -15 7 -15 15 0 8
7 15 15 15 8 0 15 -7 15 -15z"/>
</g>
</svg>
