<svg style="position: absolute; width: 0; height: 0;" width="0" height="0" version="1.1" xmlns="http://www.w3.org/2000/svg" xmlns:xlink="http://www.w3.org/1999/xlink">
<defs>
<symbol id="icon-remove" viewBox="0 0 1024 1024">
<title>remove</title>
<path class="path1" d="M622.293 341.333l-110.293 110.293-110.293-110.293-60.373 60.373 110.293 110.293-110.293 110.293 60.373 60.373 110.293-110.293 110.293 110.293 60.373-60.373-110.293-110.293 110.293-110.293-60.373-60.373zM512 85.333c-235.733 0-426.667 190.933-426.667 426.667s190.933 426.667 426.667 426.667 426.667-190.933 426.667-426.667-190.933-426.667-426.667-426.667zM512 853.333c-188.16 0-341.333-153.173-341.333-341.333s153.173-341.333 341.333-341.333 341.333 153.173 341.333 341.333-153.173 341.333-341.333 341.333z"></path>
</symbol>
<symbol id="icon-restore" viewBox="0 0 1024 1024">
<title>restore</title>
<path class="path1" d="M554.453 128c-212.267 0-383.787 171.947-383.787 384h-128l166.187 166.187 2.987 6.187 172.16-172.373h-128c0-164.907 133.76-298.667 298.667-298.667s298.667 133.76 298.667 298.667-133.76 298.667-298.667 298.667c-82.56 0-157.013-33.707-210.987-87.68l-60.373 60.373c69.333 69.547 165.12 112.64 271.147 112.64 212.267 0 384.213-171.947 384.213-384s-171.947-384-384.213-384zM512 341.333v213.333l182.613 108.373 30.72-51.84-149.333-88.533v-181.333h-64z"></path>
</symbol>
<symbol id="icon-edit" viewBox="0 0 1024 1024">
<title>edit</title>
<path class="path1" d="M128 736v160h160l472.107-472.107-160-160-472.107 472.107zM883.413 300.587c16.64-16.64 16.64-43.733 0-60.373l-99.627-99.627c-16.64-16.64-43.733-16.64-60.373 0l-78.080 78.080 160 160 78.080-78.080z"></path>
</symbol>
<symbol id="icon-arrow" viewBox="0 0 1024 1024">
<title>arrow</title>
<path class="path1" d="M366.293 702.293l195.627-195.627-195.627-195.627 60.373-60.373 256 256-256 256z"></path>
</symbol>
<symbol id="icon-preview" viewBox="0 0 1024 1024">
<title>preview</title>
<path class="path1" d="M512 192c-213.333 0-395.52 132.693-469.333 320 73.813 187.307 256 320 469.333 320s395.52-132.693 469.333-320c-73.813-187.307-255.787-320-469.333-320zM512 725.333c-117.76 0-213.333-95.573-213.333-213.333s95.573-213.333 213.333-213.333 213.333 95.573 213.333 213.333-95.573 213.333-213.333 213.333zM512 384c-70.613 0-128 57.387-128 128s57.387 128 128 128 128-57.387 128-128-57.387-128-128-128z"></path>
</symbol>
</defs>
</svg>
