<svg style="position: absolute; width: 0; height: 0;" width="0" height="0" version="1.1" xmlns="http://www.w3.org/2000/svg" xmlns:xlink="http://www.w3.org/1999/xlink">
<defs>
<symbol id="save" viewBox="0 0 1024 1024">
<title>save</title>
<path class="path1" d="M825.813 428.16c-29.013-146.773-158.507-257.493-313.813-257.493-123.307 0-230.187 69.973-283.733 172.16-128.213 13.867-228.267 122.453-228.267 254.507 0 141.44 114.56 256 256 256h554.667c117.76 0 213.333-95.573 213.333-213.333 0-112.64-87.68-203.947-198.187-211.84zM597.333 554.667v170.667h-170.667v-170.667h-128l213.333-213.333 213.333 213.333h-128z"></path>
</symbol>
<symbol id="remove" viewBox="0 0 1024 1024">
<title>remove</title>
<path class="path1" d="M622.293 341.333l-110.293 110.293-110.293-110.293-60.373 60.373 110.293 110.293-110.293 110.293 60.373 60.373 110.293-110.293 110.293 110.293 60.373-60.373-110.293-110.293 110.293-110.293-60.373-60.373zM512 85.333c-235.733 0-426.667 190.933-426.667 426.667s190.933 426.667 426.667 426.667 426.667-190.933 426.667-426.667-190.933-426.667-426.667-426.667zM512 853.333c-188.16 0-341.333-153.173-341.333-341.333s153.173-341.333 341.333-341.333 341.333 153.173 341.333 341.333-153.173 341.333-341.333 341.333z"></path>
</symbol>
<symbol id="schedule" viewBox="0 0 1024 1024">
<title>schedule</title>
<path class="path1" d="M810.667 128h-42.667v-85.333h-85.333v85.333h-341.333v-85.333h-85.333v85.333h-42.667c-47.147 0-84.907 38.187-84.907 85.333l-0.427 597.333c0 47.147 38.187 85.333 85.333 85.333h597.333c47.147 0 85.333-38.187 85.333-85.333v-597.333c0-47.147-38.187-85.333-85.333-85.333zM810.667 810.667h-597.333v-469.333h597.333v469.333zM298.667 426.667h213.333v213.333h-213.333z"></path>
</symbol>
<symbol id="edit" viewBox="0 0 1024 1024">
<title>edit</title>
<path class="path1" d="M128 736v160h160l472.107-472.107-160-160-472.107 472.107zM883.413 300.587c16.64-16.64 16.64-43.733 0-60.373l-99.627-99.627c-16.64-16.64-43.733-16.64-60.373 0l-78.080 78.080 160 160 78.080-78.080z"></path>
</symbol>
<symbol id="publish" viewBox="0 0 1024 1024">
<title>publish</title>
<path class="path1" d="M825.813 428.16c-29.013-146.773-158.507-257.493-313.813-257.493-123.307 0-230.187 69.973-283.733 172.16-128.213 13.867-228.267 122.453-228.267 254.507 0 141.44 114.56 256 256 256h554.667c117.76 0 213.333-95.573 213.333-213.333 0-112.64-87.68-203.947-198.187-211.84zM426.667 725.333l-149.333-149.333 60.373-60.373 88.96 88.96 220.8-220.8 60.373 60.373-281.173 281.173z"></path>
</symbol>
<symbol id="arrow" viewBox="0 0 1024 1024">
<title>arrow</title>
<path class="path1" d="M366.293 702.293l195.627-195.627-195.627-195.627 60.373-60.373 256 256-256 256z"></path>
</symbol>
<symbol id="preview" viewBox="0 0 1024 1024">
<title>preview</title>
<path class="path1" d="M512 192c-213.333 0-395.52 132.693-469.333 320 73.813 187.307 256 320 469.333 320s395.52-132.693 469.333-320c-73.813-187.307-255.787-320-469.333-320zM512 725.333c-117.76 0-213.333-95.573-213.333-213.333s95.573-213.333 213.333-213.333 213.333 95.573 213.333 213.333-95.573 213.333-213.333 213.333zM512 384c-70.613 0-128 57.387-128 128s57.387 128 128 128 128-57.387 128-128-57.387-128-128-128z"></path>
</symbol>
</defs>
</svg>
